<svg xmlns="http://www.w3.org/2000/svg" viewBox="0 0 24 24" fill="#ff6b00">
  <path d="M12 2C6.477 2 2 6.477 2 12s4.477 10 10 10 10-4.477 10-10S17.523 2 12 2zm0 18c-4.411 0-8-3.589-8-8s3.589-8 8-8 8 3.589 8 8-3.589 8-8 8z"/>
  <path d="M8 8h8v2H8V8zm0 3h8v2H8v-2zm0 3h6v2H8v-2z"/>
  <path d="M6 6h12v12H6V6zm2 2v8h8V8H8z"/>
  <path d="M10 10h4v4h-4v-4z"/>
  <path d="M12 4l-2 2 2 2 2-2-2-2z"/>
  <path d="M4 12l2-2 2 2-2 2-2-2z"/>
  <path d="M20 12l-2-2-2 2 2 2 2-2z"/>
  <path d="M12 8l-1 1 1 1 1-1-1-1z"/>
  <path d="M8 16l2-2 2 2-2 2-2-2z"/>
  <path d="M16 16l-2-2-2 2 2 2 2-2z"/>
</svg>
